HIERARCHY
ROOT Hips
{
	OFFSET -3.958830 18.904000 13.208200
	CHANNELS 6 Xposition Yposition Zposition Zrotation Yrotation Xrotation 
	JOINT LHipJoint
	{
		OFFSET 0.000000 0.000000 0.000000
		CHANNELS 3 Zrotation Yrotation Xrotation
		JOINT LeftUpLeg
		{
			OFFSET 1.800000 -1.400000 0.085000
			CHANNELS 3 Zrotation Yrotation Xrotation
			JOINT LeftLeg
			{
				OFFSET 2.215000 -6.000000 0.000000
				CHANNELS 3 Zrotation Yrotation Xrotation
				JOINT LeftFoot
				{
					OFFSET 2.500000 -6.900000 0.000000
					CHANNELS 3 Zrotation Yrotation Xrotation
					JOINT LeftToeBase
					{
						OFFSET 0.200000 -0.500000 1.950000
						CHANNELS 3 Zrotation Yrotation Xrotation
						End Site
						{
							OFFSET 0.000000 0.000000 0.000000
						}
					}
				}
			}
		}
	}
	JOINT RHipJoint
	{
		OFFSET 0.000000 0.000000 0.000000
		CHANNELS 3 Zrotation Yrotation Xrotation
		JOINT RightUpLeg
		{
			OFFSET -1.800000 -1.400000 0.085000
			CHANNELS 3 Zrotation Yrotation Xrotation
			JOINT RightLeg
			{
				OFFSET -2.215000 -6.000000 0.000000
				CHANNELS 3 Zrotation Yrotation Xrotation
				JOINT RightFoot
				{
					OFFSET -2.500000 -6.900000 0.000000
					CHANNELS 3 Zrotation Yrotation Xrotation
					JOINT RightToeBase
					{
						OFFSET -0.200000 -0.500000 1.950000
						CHANNELS 3 Zrotation Yrotation Xrotation
						End Site
						{
							OFFSET 0.000000 0.000000 0.000000
						}
					}
				}
			}
		}
	}
	JOINT LowerBack
	{
		OFFSET 0.000000 0.000000 0.000000
		CHANNELS 3 Zrotation Yrotation Xrotation
		JOINT Spine
		{
			OFFSET -0.087000 1.940000 -0.288900
			CHANNELS 3 Zrotation Yrotation Xrotation
			JOINT Spine1
			{
				OFFSET 0.000000 1.950000 0.060000
				CHANNELS 3 Zrotation Yrotation Xrotation
				JOINT Neck
				{
					OFFSET 0.000000 0.000000 0.000000
					CHANNELS 3 Zrotation Yrotation Xrotation
					JOINT Neck1
					{
						OFFSET 0.000000 1.600000 0.340000
						CHANNELS 3 Zrotation Yrotation Xrotation
						JOINT Head
						{
							OFFSET 0.000000 1.667000 -0.240000
							CHANNELS 3 Zrotation Yrotation Xrotation
							End Site
							{
								OFFSET 0.000000 0.000000 0.000000
							}
						}
					}
				}
				JOINT LeftShoulder
				{
					OFFSET 0.000000 0.000000 0.000000
					CHANNELS 3 Zrotation Yrotation Xrotation
					JOINT LeftArm
					{
						OFFSET 2.700000 1.550000 -0.730000
						CHANNELS 3 Zrotation Yrotation Xrotation
						JOINT LeftForeArm
						{
							OFFSET 5.450000 0.000000 0.000000
							CHANNELS 3 Zrotation Yrotation Xrotation
							JOINT LeftHand
							{
								OFFSET 3.450000 0.000000 0.000000
								CHANNELS 3 Zrotation Yrotation Xrotation
								JOINT LeftHandIndex1
								{
									OFFSET 0.750000 0.000000 0.000000
									CHANNELS 3 Zrotation Yrotation Xrotation
									End Site
									{
										OFFSET 0.000000 0.000000 0.000000
									}
								}
							}
						}
					}
				}
				JOINT RightShoulder
				{
					OFFSET 0.000000 0.000000 0.000000
					CHANNELS 3 Zrotation Yrotation Xrotation
					JOINT RightArm
					{
						OFFSET -2.700000 1.550000 -0.730000
						CHANNELS 3 Zrotation Yrotation Xrotation
						JOINT RightForeArm
						{
							OFFSET -5.450000 0.000000 0.000000
							CHANNELS 3 Zrotation Yrotation Xrotation
							JOINT RightHand
							{
								OFFSET -3.450000 0.000000 0.000000
								CHANNELS 3 Zrotation Yrotation Xrotation
								JOINT RightHandIndex1
								{
									OFFSET -0.750000 0.000000 0.000000
									CHANNELS 3 Zrotation Yrotation Xrotation
									End Site
									{
										OFFSET 0.000000 0.000000 0.000000
									}
								}
							}
						}
					}
				}
			}
		}
	}
}
MOTION
Frames: 14
Frame Time: 0.016667
0.155080 16.104790 -1.338540 -14.620798 30.828953 -22.546621 -15.396203 12.606476 1.723450 5.731362 -0.801289 4.471593 -4.883343 8.284575 24.507084 -0.369922 6.640753 2.476070 0.542950 -0.093490 0.507080 18.492982 -7.483012 6.409618 -19.931674 8.399246 -56.004614 40.050784 -39.370864 60.930408 -2.992081 -14.380288 0.150329 0.107170 0.176980 0.129200 -4.037204 -3.741394 -9.275780 20.192378 -9.907892 31.998529 -2.352289 -4.505362 4.058267 2.401049 -1.197388 -7.025237 -7.021456 -2.361547 45.851950 1.068790 -5.269300 -14.716750 -23.959315 -7.290117 0.479973 -22.566701 -4.374074 -8.521595 60.728545 -64.500727 -37.063984 -3.356594 1.808915 0.907520 0.027820 -0.091540 0.163780 19.407661 6.112772 4.725607 27.483194 -4.057763 -12.589152 -52.866268 25.761975 -11.577714 1.753974 -1.483310 -0.416390 0.415050 0.063790 -0.505130 
0.115600 16.232100 -1.366780 -15.648919 28.686387 -21.235755 -15.334316 12.518613 1.570017 6.443505 -1.022659 2.614210 -4.472163 7.939154 23.890205 -0.475195 6.434765 2.570607 0.477910 -0.165350 0.445070 18.582450 -7.433008 6.533713 -20.372719 8.395639 -57.964306 37.141678 -41.406659 65.956889 -3.145275 -15.216072 -0.020494 0.093120 0.250190 0.099460 -4.180346 -3.663779 -9.214114 22.289164 -11.117202 31.528103 -2.967905 -5.074516 3.893102 2.106054 -2.538569 -6.905204 -9.070381 -1.688433 42.880197 0.920930 -5.417100 -14.049100 -22.228704 -5.974844 0.332073 -22.053321 -4.338997 -7.759130 65.695029 -64.450990 -40.132697 -3.375911 1.641669 0.885470 0.068130 -0.158730 0.162840 18.054187 5.404241 4.529147 26.818190 -4.347065 -12.369600 -56.140088 26.581831 -12.561738 1.725343 -1.484761 -0.471550 0.458400 0.107710 -0.499920 
0.079360 16.363890 -1.400110 -16.643986 25.962178 -19.531890 -15.263757 12.414154 1.439312 7.572368 -1.305621 0.162857 -4.764863 7.882404 23.463545 -0.527541 6.250030 2.649872 0.464530 -0.177940 0.414870 18.677291 -7.404560 6.641871 -20.078620 9.309740 -60.521749 32.145692 -41.886767 71.952813 -3.307116 -16.045838 -0.196420 0.093750 0.286910 0.085850 -4.321011 -3.484682 -9.146857 24.447976 -12.227725 31.011175 -3.650608 -5.447385 3.689255 1.877618 -3.894539 -7.064755 -10.801859 -0.754896 39.982112 0.992790 -5.111250 -13.589530 -19.911389 -4.237009 0.786680 -23.022457 -2.923371 -7.108597 73.842269 -62.504278 -44.791258 -3.381394 1.532803 0.858010 0.082530 -0.189120 0.189510 15.994307 4.770956 4.002312 26.925143 -2.294536 -11.656302 -57.941852 24.328255 -11.903230 1.748948 -1.546110 -0.485980 0.469700 0.101420 -0.482870 
0.055010 16.502430 -1.431480 -17.948918 22.863111 -17.910224 -15.170145 12.240629 1.293347 8.816597 -1.502172 -1.925145 -4.756184 7.597505 22.401257 -0.595346 5.977160 2.743195 0.460340 -0.167700 0.372890 18.794453 -7.401446 6.767487 -20.597141 9.746437 -62.114365 34.151129 -43.792619 71.741369 -3.388190 -16.297395 -0.225622 0.102470 0.323020 0.084940 -4.525451 -3.139646 -9.045867 27.602781 -13.513308 30.194115 -5.107652 -5.652267 3.629400 1.659983 -5.269919 -6.962652 -12.524889 0.292603 37.021201 1.702030 -4.928870 -13.675710 -18.401177 -2.432741 0.869006 -23.132201 -1.653945 -6.484977 78.077596 -60.430261 -46.526832 -3.436431 1.597239 0.820650 0.102150 -0.220170 0.206480 14.711780 3.810844 3.627224 27.069051 -1.866509 -11.284721 -59.725353 26.068701 -12.982718 1.718108 -1.560543 -0.479900 0.469310 0.105860 -0.457430 
-0.000120 16.633230 -1.465140 -18.676758 19.738519 -16.800226 -15.130571 12.225823 1.236262 9.988770 -1.604686 -3.700728 -4.518569 7.408243 21.968557 -0.617609 5.768633 2.801588 0.482820 -0.135090 0.392960 18.818250 -7.404281 6.844316 -20.718423 10.442337 -62.329600 35.540693 -45.556998 72.198373 -3.513576 -16.570281 -0.263289 0.103440 0.292520 0.090730 -4.531686 -3.065497 -9.015498 28.839806 -13.893439 31.358879 -5.714102 -5.180458 2.970347 1.714170 -5.583737 -7.089113 -12.550191 0.763070 35.422067 1.212370 -3.918600 -14.396150 -17.254639 -1.614399 1.002037 -21.724163 0.046171 -6.301032 81.412820 -60.831866 -49.369997 -3.416102 1.559637 0.813880 0.088140 -0.198750 0.215730 13.332733 3.509343 3.500969 28.678515 -1.502625 -11.453294 -64.178167 24.427790 -13.412909 1.744736 -1.634856 -0.454010 0.442530 0.075140 -0.456010 
-0.040640 16.750890 -1.493940 -19.757652 16.152526 -15.453560 -15.085147 12.125012 1.151676 11.583206 -1.584057 -5.361517 -4.354380 7.173818 20.776632 -0.687137 5.559211 2.859355 0.475680 -0.146720 0.395950 18.865781 -7.327446 7.032800 -22.006109 11.130851 -63.513462 40.242252 -49.230255 71.077214 -3.646796 -16.805791 -0.285213 0.099430 0.291310 0.098550 -4.575201 -2.904997 -9.023699 31.007536 -13.736651 31.904606 -6.515870 -3.828662 2.512935 1.944090 -5.727457 -7.113323 -12.341151 0.599481 33.934322 0.818930 -3.654610 -14.766370 -16.569992 -0.859464 0.711764 -20.655863 -0.087590 -5.697502 82.903317 -60.349461 -49.938842 -3.442414 1.581957 0.813960 0.094020 -0.202390 0.205950 11.992040 3.212494 3.690115 29.398658 -2.321923 -11.418025 -66.387546 22.739473 -12.794685 1.757326 -1.682173 -0.456690 0.433330 0.082870 -0.463100 
-0.081460 16.839690 -1.528440 -20.849158 12.545991 -13.728805 -15.048130 12.009277 1.123065 13.274566 -1.538842 -7.159604 -4.497586 6.976458 19.153937 -0.749718 5.364568 2.933802 0.450230 -0.186620 0.394240 18.903539 -7.262245 7.186832 -23.415886 11.534340 -64.577226 44.422514 -52.379881 69.725584 -3.722111 -16.877609 -0.263209 0.082850 0.310580 0.094560 -4.613137 -2.735366 -9.050110 33.083319 -13.424885 32.510173 -7.433612 -2.391859 1.617325 2.127505 -5.600720 -7.143704 -11.633398 0.113382 32.535924 0.059580 -3.389640 -14.458930 -15.441296 0.080977 0.397135 -19.207673 -0.139736 -4.940180 85.184471 -61.804747 -52.522946 -3.438968 1.442751 0.815930 0.111410 -0.218880 0.206190 10.290789 2.638431 3.870148 31.985616 -3.111184 -11.701311 -69.561371 23.672264 -13.936688 1.726871 -1.691559 -0.481010 0.442200 0.089410 -0.473670 
-0.114990 16.905110 -1.549820 -21.382630 11.030029 -12.236441 -15.045295 11.985208 1.144480 13.529572 -1.571449 -8.457379 -3.994420 6.384756 17.086424 -0.877143 5.099544 3.055774 0.406470 -0.268380 0.386830 18.896277 -7.260335 7.191570 -24.279576 10.573969 -63.486929 45.538570 -54.521294 69.870480 -3.734347 -16.930362 -0.259412 0.071110 0.356070 0.078420 -4.587231 -2.786816 -9.031254 33.972741 -13.594435 32.838237 -8.074685 -2.076860 0.108121 2.144281 -5.628433 -6.705045 -11.318679 -0.547191 30.845202 -0.645980 -3.638760 -14.237550 -14.838599 1.605268 -0.508731 -17.014520 -0.499117 -4.107847 85.369927 -63.262429 -52.946167 -3.448253 1.297060 0.843150 0.138890 -0.261680 0.197830 9.501616 1.086974 3.876055 32.975393 -5.511628 -12.000262 -73.240043 26.919761 -16.575411 1.657469 -1.649838 -0.552870 0.482650 0.123510 -0.502870 
-0.154080 16.939300 -1.563080 -21.710597 10.006426 -10.660553 -15.057933 11.998310 1.195593 13.214091 -1.674003 -10.145954 -3.426116 5.833618 15.619099 -0.945321 4.807356 3.169644 0.408080 -0.277880 0.386710 18.867743 -7.264427 7.145405 -24.583941 9.775229 -61.880736 46.139833 -56.257217 70.168036 -3.759069 -16.975154 -0.268495 0.075790 0.371920 0.091860 -4.521387 -2.935816 -8.997560 34.110928 -13.741178 32.850524 -7.894530 -2.189201 -1.296822 1.988746 -5.886564 -6.367287 -11.303438 -0.735456 28.909042 -1.334920 -3.552940 -14.048610 -14.321498 3.218267 -0.930975 -15.829477 0.527127 -3.481573 87.527007 -64.885458 -55.646976 -3.440946 1.149946 0.835560 0.156450 -0.276640 0.208110 9.221439 -0.258584 3.614682 32.397376 -6.580872 -11.797144 -75.510976 30.399235 -19.358708 1.608619 -1.631815 -0.561560 0.474390 0.122060 -0.504880 
-0.192770 16.932600 -1.559690 -21.185609 8.772526 -7.915981 -15.079325 11.966871 1.242372 11.823939 -1.951391 -12.545483 -2.628680 5.256376 14.817353 -0.949434 4.423503 3.318584 0.386790 -0.288020 0.329810 18.854875 -7.205700 7.181116 -25.404546 8.678457 -61.437286 45.761823 -58.135420 71.566527 -3.783744 -17.171029 -0.296337 0.063660 0.407790 0.097520 -4.463864 -3.106526 -8.979851 33.092200 -13.412850 31.877507 -7.306317 -2.386398 -3.004966 1.546372 -6.394208 -6.480411 -11.608299 -0.265226 26.178022 -1.153580 -3.413000 -11.616810 -12.776022 5.505595 -0.681670 -16.423443 3.116729 -2.848607 90.780473 -66.264213 -59.613766 -3.454265 1.034633 0.754980 0.193820 -0.326280 0.232670 8.600518 -2.048944 3.504053 31.623617 -9.740980 -11.675678 -77.636771 36.897496 -24.122733 1.544577 -1.588832 -0.537020 0.426860 0.113010 -0.469410 
-0.229970 16.908450 -1.554830 -21.015273 5.804061 -4.724470 -15.076158 11.864764 1.296253 10.873008 -2.213825 -14.985402 -2.051735 4.850641 14.190313 -0.950480 4.128920 3.441972 0.355820 -0.308060 0.279000 18.867759 -7.155659 7.216745 -24.844329 9.711815 -62.462697 40.914068 -58.791517 77.304214 -3.977484 -18.140813 -0.469870 0.048640 0.463870 0.093410 -4.488150 -3.046072 -8.952916 32.634436 -12.922304 30.443923 -6.941164 -2.246926 -3.733063 1.153306 -7.145177 -6.858165 -12.373902 1.191154 23.795792 -0.661680 -2.757310 -9.779620 -11.851182 7.243612 0.346175 -18.112407 7.471893 -2.739404 96.721763 -65.226821 -66.079236 -3.629366 1.096459 0.690020 0.232950 -0.371610 0.252990 8.556517 -3.037554 3.253770 31.132369 -11.967229 -11.853628 -80.166632 40.131472 -27.529998 1.512095 -1.550128 -0.530220 0.420380 0.114740 -0.436140 
-0.247370 16.870100 -1.530170 -21.326458 3.162653 -2.200051 -15.046588 11.860986 1.354047 10.028363 -2.285078 -16.373325 -0.882760 4.321500 13.407151 -0.916863 3.797587 3.563761 0.389000 -0.239180 0.272800 18.868865 -7.332351 7.051128 -23.231804 10.604198 -60.549658 37.279710 -57.516438 80.016623 -4.062412 -18.575788 -0.557412 0.061220 0.457050 0.119450 -4.555342 -2.851844 -8.843903 33.531421 -12.405231 28.088713 -7.337512 -1.986961 -4.038691 1.292582 -7.296988 -6.831667 -12.345032 1.814148 22.797797 -1.301280 -1.923460 -8.696680 -11.386477 8.805411 0.560228 -19.424489 9.540545 -2.809773 99.156885 -65.923913 -69.979780 -3.686455 1.087985 0.627480 0.250860 -0.358510 0.288950 7.759531 -4.389636 3.112655 31.330344 -13.948961 -12.186639 -82.770125 43.177480 -31.336138 1.486148 -1.530982 -0.469980 0.370470 0.064150 -0.397570 
-0.267840 16.804920 -1.472500 -21.032020 1.094929 -0.455357 -14.993663 11.908529 1.416567 8.870181 -2.286881 -16.691669 -0.118162 3.995982 13.056196 -0.884625 3.592571 3.648071 0.409820 -0.187520 0.239040 18.875374 -7.648321 6.743028 -22.029227 10.224025 -55.474382 35.307526 -55.753066 80.066682 -3.982391 -18.394834 -0.527833 0.079250 0.470520 0.108850 -4.668416 -2.645843 -8.660145 33.716959 -11.763877 24.981684 -7.083396 -2.371342 -3.715173 0.857599 -7.949086 -6.602121 -13.662124 3.002947 23.031685 -0.416620 -1.836010 -7.354280 -10.317688 10.674070 0.803140 -22.062380 10.877227 -3.131750 99.382244 -68.363121 -72.879344 -3.656706 0.797527 0.574760 0.256560 -0.371630 0.324020 7.487121 -6.020600 2.709677 29.928944 -16.171044 -12.380490 -86.214326 46.999510 -36.722683 1.458321 -1.433568 -0.437880 0.357390 0.033960 -0.357610 
-0.301480 16.712120 -1.411250 -20.539792 -3.041912 2.351517 -14.920519 11.720567 1.484597 7.711727 -2.338048 -17.205243 -0.275770 3.713308 11.510609 -0.921610 3.419268 3.747206 0.435780 -0.137590 0.213110 18.945491 -7.938737 6.493681 -20.798993 11.115828 -52.718471 32.922630 -53.291338 80.836298 -3.927639 -18.398028 -0.535450 0.133960 0.548970 0.104910 -4.925424 -2.007888 -8.460290 33.428209 -10.345798 20.353150 -6.698598 -2.563632 -1.693382 0.238495 -8.610906 -6.426817 -14.633522 5.276594 22.030483 0.170290 -0.827570 -6.133860 -9.358983 11.806891 1.785543 -26.567713 13.705992 -4.389760 100.776027 -68.254386 -75.846231 -3.790235 0.857857 0.521750 0.308460 -0.412490 0.371550 7.777343 -6.907401 1.944499 27.612954 -15.626488 -11.959414 -88.462056 50.318768 -41.669874 1.375144 -1.299265 -0.451650 0.401340 0.022590 -0.326300 
